<?xml version="1.0" encoding="utf-8"?>
<!-- Generator: Adobe Illustrator 18.0.0, SVG Export Plug-In . SVG Version: 6.00 Build 0)  -->
<!DOCTYPE svg PUBLIC "-//W3C//DTD SVG 1.1//EN" "http://www.w3.org/Graphics/SVG/1.1/DTD/svg11.dtd">
<svg version="1.1" id="Layer_1" xmlns="http://www.w3.org/2000/svg" xmlns:xlink="http://www.w3.org/1999/xlink" x="0px" y="0px"
	 viewBox="0 0 85 97" enable-background="new 0 0 85 97" xml:space="preserve">
<polygon fill="#C1A5CE" points="14.3,30 14.3,65.7 10.3,65.7 10.3,72.3 5,72.3 5,66.3 0,66.3 0,97 85,97 85,58 76.7,58 76.7,64 
	70,64 70,50 74.3,51.4 58,26.7 47,40.7 46.7,29.7 51.3,30.9 30.3,0 8.8,31.7 "/>
<path fill="#FFFFFF" d="M24.5,38.7h-3.6c-0.9,0-1.6-0.7-1.6-1.6v-3.6c0-0.9,0.7-1.6,1.6-1.6h3.6c0.9,0,1.6,0.7,1.6,1.6v3.6
	C26.1,38,25.4,38.7,24.5,38.7z"/>
<path fill="#FFFFFF" d="M40.1,38.7h-3.5c-0.9,0-1.6-0.7-1.6-1.6v-3.5c0-0.9,0.7-1.6,1.6-1.6h3.5c0.9,0,1.6,0.7,1.6,1.6V37
	C41.7,37.9,41,38.7,40.1,38.7z"/>
<path fill="#FFFFFF" d="M60.3,51.3h-2.6c-0.8,0-1.5-0.7-1.5-1.5v-2.6c0-0.8,0.7-1.5,1.5-1.5h2.6c0.8,0,1.5,0.7,1.5,1.5v2.6
	C61.8,50.6,61.1,51.3,60.3,51.3z"/>
</svg>
